<svg xmlns="http://www.w3.org/2000/svg" viewBox="0 0 60 60" data-animoptions="{'duration':'2', 'repeat':'0', 'repeatDelay':'0.7'}" preserveAspectRatio="xMinYMin meet" style="left:0;top:0"><g class="lievo-setrotation"><g class="lievo-setsharp"><g class="lievo-setflip"><g class="lievo-main"><defs><clipPath id="a"><path class="lievo-donotdraw lievo-nohovercolor lievo-nohoverstroke" d="M31 29c0-.55.45-1 1-1 3.41 0 5.28-5.26 5.83-10H22.17c.55 4.74 2.42 10 5.83 10 .55 0 1 .45 1 1v15h2V29z" fill="none"/></clipPath></defs><g class="lievo-lineicon"><g clip-path="url(#a)"><path class="lievo-donotdraw lievo-likestroke lievo-altstroke" fill="#22a7f0" data-svg-origin="19 4" d="M19 36h22v24H19z"/></g><g data-svg-origin="30 30" style="transform-origin:0 0 0"><path class="lievo-likestroke lievo-altstroke" fill="#22a7f0" d="M30 33l3 2c3 2 4.45 4.26 5 9H22c.55-4.74 2-7 5-9l3-2z" data-svg-origin="22 33"/><path fill="none" stroke="#22a7f0" stroke-width="2" stroke-linecap="round" stroke-linejoin="round" stroke-miterlimit="10" d="M19 13v2c0 8 3 15 8 15-5 0-8 7-8 15v2M41 13v2c0 8-3 15-8 15 5 0 8 7 8 15v2"/><path fill="none" stroke="#22a7f0" stroke-width="2" stroke-linecap="square" stroke-miterlimit="10" d="M30 47h13v2h2v4H15v-4h2v-2h13M30 7H15v4h2v2h26v-2h2V7H30"/></g></g></g></g></g></g></svg>